<?xml version="1.0" standalone="no"?>
<!DOCTYPE svg PUBLIC "-//W3C//DTD SVG 20010904//EN"
 "http://www.w3.org/TR/2001/REC-SVG-20010904/DTD/svg10.dtd">
<svg version="1.0" xmlns="http://www.w3.org/2000/svg"
 width="592.000000pt" height="592.000000pt" viewBox="0 0 592.000000 592.000000"
 preserveAspectRatio="xMidYMid meet">
<metadata>
Created by potrace 1.11, written by Peter Selinger 2001-2013
</metadata>
<g transform="translate(0.000000,592.000000) scale(0.100000,-0.100000)"
fill="#000000" stroke="none">
<path d="M2059 5343 c-139 -157 -176 -197 -231 -257 l-47 -51 -1 -95 c0 -92 1
-97 35 -147 60 -89 126 -120 206 -97 26 8 52 21 59 29 7 8 16 15 21 15 5 0 9
-212 9 -483 l0 -482 -46 -45 c-25 -24 -57 -64 -72 -89 -55 -94 -28 -227 68
-329 l40 -44 0 -169 0 -170 -157 -76 c-87 -41 -162 -77 -166 -80 -4 -3 -5 63
-2 146 6 144 5 151 -13 151 -30 0 -85 -42 -107 -83 -16 -29 -24 -36 -44 -32
-23 4 -74 -16 -96 -39 -31 -31 -67 -103 -91 -183 l-27 -89 -37 18 c-45 23 -72
29 -128 29 -39 1 -48 -5 -102 -57 -119 -115 -120 -220 -6 -342 53 -56 62 -95
21 -88 -37 7 -83 -12 -91 -37 -3 -12 -33 -92 -66 -177 -33 -85 -75 -195 -94
-245 -19 -49 -39 -99 -43 -110 -5 -11 -15 -36 -22 -55 -16 -47 -18 -48 -64
-55 -128 -19 -240 -60 -294 -108 -31 -29 -60 -94 -55 -124 3 -14 -8 -55 -23
-91 -63 -155 -18 -358 108 -484 96 -96 262 -152 382 -128 234 46 399 233 406
463 l1 27 160 0 160 0 0 -64 c0 -57 3 -65 25 -80 32 -21 47 -20 78 4 23 18 40
20 202 20 195 0 221 6 203 45 l-11 25 -189 0 c-181 0 -188 1 -188 20 0 19 7
20 123 21 67 0 228 2 358 4 l236 4 6 -47 c7 -57 35 -142 65 -200 34 -65 131
-155 203 -191 82 -40 95 -43 210 -47 138 -5 247 32 343 117 87 76 152 217 155
337 l1 32 739 0 739 0 53 28 c43 22 59 38 81 81 l28 53 0 1744 0 1743 46 -16
c98 -33 197 4 256 97 29 46 30 49 13 182 -5 38 -10 46 -95 135 -41 44 -128
137 -194 206 l-119 127 -1407 0 -1407 0 -104 -117z m-433 -2451 c-8 -8 22 -60
51 -86 15 -14 40 -28 55 -31 38 -9 35 -21 -12 -45 -22 -11 -40 -18 -40 -15 0
3 -10 -3 -22 -14 -11 -11 -25 -18 -30 -15 -4 3 -8 0 -8 -6 0 -6 -4 -9 -9 -6
-5 3 -14 -1 -21 -9 -7 -8 -16 -13 -20 -10 -4 3 -13 -2 -20 -10 -7 -8 -16 -12
-21 -9 -5 3 -9 0 -9 -5 0 -6 -3 -10 -7 -9 -5 1 -19 -2 -32 -6 -15 -5 -28 -4
-37 6 -12 11 -8 28 21 107 19 51 44 108 55 126 24 40 78 69 97 53 8 -6 11 -13
9 -16z m472 -354 l-3 -143 -128 -2 c-144 -1 -178 -11 -206 -57 -10 -17 -78
-210 -151 -428 -74 -221 -138 -398 -145 -398 -8 0 -10 -18 -7 -58 l4 -58 -52
-12 c-28 -7 -58 -19 -67 -27 -8 -9 -20 -14 -27 -12 -29 10 -47 139 -33 242 9
72 48 310 52 325 2 8 6 32 9 52 3 21 11 59 17 85 6 27 12 59 14 73 2 14 10 53
18 88 17 71 44 103 102 122 44 15 70 52 67 96 -2 31 4 39 31 35 4 0 7 4 7 10
0 5 4 8 9 4 5 -3 12 -1 16 5 4 6 11 8 16 5 5 -4 9 -2 9 3 0 8 21 17 60 27 9 2
84 36 111 51 14 7 29 11 33 7 3 -3 6 -1 6 6 0 7 4 10 9 7 4 -3 17 1 27 9 10 8
24 15 31 15 13 0 116 43 143 60 8 5 18 9 23 9 4 1 6 -63 5 -141z m1 -417 c5
-7 6 -840 2 -872 -1 -3 -7 -6 -13 -6 -7 -1 -26 -5 -43 -10 -16 -5 -79 -9 -140
-9 l-110 1 0 130 c0 72 -4 133 -9 137 -6 4 -5 12 1 20 6 7 12 16 12 20 4 25
52 150 64 166 5 6 7 12 4 12 -5 0 4 26 48 135 4 11 9 25 10 30 2 6 15 42 30
80 15 39 36 93 47 122 11 29 27 54 36 56 24 5 54 -1 61 -12z"/>
</g>
</svg>
